<svg width="84" height="85" viewBox="0 0 84 85" fill="none" xmlns="http://www.w3.org/2000/svg">
<circle cx="42" cy="42.9246" r="42" fill="#00AFFF" fill-opacity="0.1"/>
<path d="M44.1372 52.2908C44.1379 50.9637 44.5289 49.6595 45.2718 48.5064C46.0146 47.3534 47.0839 46.3911 48.3745 45.7142C48.8754 45.449 49.4058 45.2301 49.9573 45.0608C50.2044 44.9921 50.4202 44.8555 50.5735 44.6708C50.7268 44.4862 50.8095 44.2632 50.8097 44.0341V39.2273C50.8091 38.1293 50.371 37.0667 49.5722 36.2263C48.7735 35.3859 47.6653 34.8214 46.4425 34.6323V33.6666C46.4425 32.4289 45.8867 31.2418 44.8972 30.3666C43.9077 29.4914 42.5656 28.9998 41.1663 28.9998H37.6271C36.2278 28.9998 34.8858 29.4914 33.8963 30.3666C32.9068 31.2418 32.3509 32.4289 32.3509 33.6666V34.6323C31.1311 34.8244 30.0267 35.3902 29.2312 36.2303C28.4357 37.0705 27.9999 38.1314 28 39.2273V53.2277C28 54.4655 28.5559 55.6525 29.5454 56.5277C30.5349 57.4029 31.8769 57.8946 33.2763 57.8946H33.3168V58.8638C33.3115 59.1467 33.4273 59.4209 33.6411 59.6314C33.855 59.8418 34.1509 59.9729 34.4695 59.9982C34.6348 60.006 34.8001 59.984 34.9554 59.9333C35.1107 59.8827 35.2527 59.8046 35.3728 59.7038C35.4928 59.603 35.5883 59.4817 35.6536 59.3471C35.7188 59.2126 35.7523 59.0677 35.752 58.9213V57.9053H43.0576V58.8638C43.0522 59.1467 43.1681 59.4209 43.3819 59.6314C43.5957 59.8418 43.8917 59.9729 44.2103 59.9982C44.3756 60.006 44.5409 59.984 44.6962 59.9333C44.8515 59.8827 44.9935 59.8046 45.1136 59.7038C45.2336 59.603 45.3291 59.4817 45.3943 59.3471C45.4595 59.2126 45.4931 59.0677 45.4928 58.9213V57.9053H45.5456C45.6586 57.9037 45.7689 57.8741 45.8639 57.8199C45.9589 57.7656 46.0347 57.6889 46.0829 57.5985C46.1311 57.508 46.1497 57.4074 46.1365 57.3081C46.1233 57.2088 46.0789 57.1147 46.0083 57.0366C45.6501 56.6364 45.3374 56.2059 45.0748 55.7514C44.4564 54.68 44.1351 53.4938 44.1372 52.2908ZM34.8023 33.6666C34.8023 33.0001 35.1016 32.3609 35.6344 31.8897C36.1672 31.4184 36.8899 31.1537 37.6434 31.1537H41.1663C41.9198 31.1537 42.6424 31.4184 43.1752 31.8897C43.708 32.3609 44.0074 33.0001 44.0074 33.6666V34.5605H34.7861L34.8023 33.6666ZM37.8585 50.2841C37.856 50.4422 37.8142 50.5979 37.736 50.7401C37.6578 50.8823 37.5452 51.0076 37.4061 51.107C37.267 51.2064 37.1049 51.2774 36.9313 51.3151C36.7576 51.3528 36.5767 51.3562 36.4014 51.3251C36.124 51.2711 35.8758 51.1349 35.6979 50.939C35.52 50.7431 35.4231 50.4994 35.4233 50.2482V42.092C35.4184 41.8377 35.5132 41.5897 35.6915 41.3902C35.8698 41.1906 36.1206 41.0517 36.4014 40.9971C36.5781 40.9657 36.7604 40.9695 36.9352 41.008C37.11 41.0465 37.273 41.1188 37.4123 41.2198C37.5517 41.3208 37.664 41.4478 37.7412 41.5918C37.8183 41.7358 37.8584 41.8931 37.8585 42.0525V50.2841ZM41.9171 51.3395C41.6392 51.2828 41.3917 51.1435 41.2159 50.9449C41.0401 50.7463 40.9467 50.5004 40.9512 50.2482V42.092C40.9463 41.8377 41.0411 41.5897 41.2194 41.3902C41.3976 41.1906 41.6485 41.0517 41.9293 40.9971C42.106 40.9657 42.2883 40.9695 42.4631 41.008C42.6379 41.0465 42.8009 41.1188 42.9402 41.2198C43.0796 41.3208 43.1919 41.4478 43.2691 41.5918C43.3462 41.7358 43.3863 41.8931 43.3864 42.0525V50.2841C43.3839 50.4422 43.3421 50.5979 43.2639 50.7401C43.1857 50.8823 43.0731 51.0076 42.934 51.107C42.7949 51.2064 42.6328 51.2774 42.4592 51.3151C42.2855 51.3528 42.1046 51.3562 41.9293 51.3251L41.9171 51.3395Z" fill="#00AFFF"/>
<path d="M50.4619 46.7947C49.2329 46.7947 48.0315 47.117 47.0096 47.7209C45.9878 48.3249 45.1914 49.1832 44.721 50.1875C44.2507 51.1918 44.1277 52.2969 44.3674 53.363C44.6072 54.4291 45.199 55.4084 46.068 56.1771C46.937 56.9457 48.0442 57.4692 49.2496 57.6812C50.455 57.8933 51.7044 57.7845 52.8398 57.3685C53.9752 56.9525 54.9457 56.248 55.6285 55.3442C56.3112 54.4404 56.6757 53.3778 56.6757 52.2908C56.6735 50.8337 56.0182 49.4368 54.8533 48.4065C53.6885 47.3762 52.1092 46.7966 50.4619 46.7947ZM54.0416 51.4938L50.5187 54.6098C50.2904 54.8115 49.9809 54.9248 49.6582 54.9248C49.3356 54.9248 49.0261 54.8115 48.7978 54.6098L46.8781 52.9154C46.6499 52.7131 46.5219 52.4389 46.5223 52.1531C46.5226 51.8673 46.6514 51.5933 46.8801 51.3915C47.1088 51.1897 47.4189 51.0764 47.742 51.0768C48.0651 51.0771 48.3748 51.191 48.603 51.3933L49.6582 52.3267L52.3207 49.9717C52.4322 49.8659 52.5666 49.781 52.716 49.7222C52.8653 49.6633 53.0266 49.6317 53.1901 49.6291C53.3535 49.6266 53.5159 49.6532 53.6675 49.7073C53.8192 49.7615 53.9569 49.8421 54.0725 49.9444C54.1881 50.0466 54.2793 50.1685 54.3405 50.3026C54.4018 50.4367 54.4318 50.5803 54.4289 50.7249C54.4261 50.8695 54.3903 51.0121 54.3237 51.1442C54.2572 51.2763 54.1612 51.3952 54.0416 51.4938Z" fill="#00AFFF"/>
</svg>
