<svg width="84" height="85" viewBox="0 0 84 85" fill="none" xmlns="http://www.w3.org/2000/svg">
<circle cx="42" cy="42.9246" r="42" fill="#00AFFF" fill-opacity="0.1"/>
<path fill-rule="evenodd" clip-rule="evenodd" d="M28.5526 38.8077L30.9803 31.624C31.8684 29.7471 33.2303 28.5822 34.8289 27.9998H50.0461C51.6447 28.5822 52.9474 29.7471 53.8947 31.624L56.3224 38.8077H59.4605C59.6974 38.8077 59.875 39.0018 59.875 39.2607V40.6845C59.875 40.9434 59.6974 41.2023 59.4605 41.2023H57.625C58.1579 41.9142 58.6908 42.7555 59.2237 43.8557C59.2237 48.1918 59.2829 52.5279 59.2829 56.9288C59.2829 58.029 58.4539 58.9998 57.3882 58.9998H56.0855C55.0197 58.9998 54.1908 58.029 54.1908 56.9288V54.2753H30.6842V56.9288C30.6842 58.029 29.8553 58.9998 28.7895 58.9998H27.4868C26.4211 58.9998 25.5921 58.029 25.5921 56.9288C25.5921 52.5279 25.6513 48.1918 25.6513 43.8557C26.1842 42.7555 26.7171 41.9142 27.25 41.2023H25.4145C25.1776 41.2023 25 40.9434 25 40.6845V39.2607C25 39.0018 25.1776 38.8077 25.4145 38.8077H28.5526ZM35.125 30.8474C34.1184 31.0415 33.4671 31.7534 33.1118 32.6595C32.4013 34.7952 31.6316 37.2545 30.9803 39.3902H53.8947C53.2434 37.2545 52.4145 34.7952 51.7632 32.6595C51.3487 31.7534 50.7566 31.0415 49.75 30.8474H35.125ZM53.2434 44.0499C52.0592 44.0499 51.1118 45.0854 51.1118 46.3797C51.1118 47.6741 52.0592 48.7096 53.2434 48.7096C54.3684 48.7096 55.3158 47.6741 55.3158 46.3797C55.3158 45.0854 54.3684 44.0499 53.2434 44.0499ZM31.6316 44.0499C32.8158 44.0499 33.7632 45.0854 33.7632 46.3797C33.7632 47.6741 32.8158 48.7096 31.6316 48.7096C30.5066 48.7096 29.5592 47.6741 29.5592 46.3797C29.5592 45.0854 30.5066 44.0499 31.6316 44.0499Z" fill="#00AFFF"/>
</svg>
