<svg width="84" height="85" viewBox="0 0 84 85" fill="none" xmlns="http://www.w3.org/2000/svg">
<circle cx="42" cy="42.9246" r="42" fill="#00AFFF" fill-opacity="0.1"/>
<path d="M45.5472 27.9998L33.5461 40.0009V43.7256H39.9323L42.7834 49.4236L44.4562 51.0984V58.9998H46.6382V43.7256H53.1842V58.9998H57.5483V57.9087V40.0009L45.5472 27.9998ZM51.0022 28.4515V30.3693L57.5483 36.9153V28.4515H51.0022ZM42.2741 37.1796H44.4562V39.3617H42.2741V37.1796ZM46.6382 37.1796H48.8202V39.3617H46.6382V37.1796ZM30.6907 45.9077L28.2849 50.717L27 52.002V56.8178H28.091H29.182V58.9998H31.364V56.8178H37.9101V58.9998H40.0921V56.8178H42.2741V52.002L40.9892 50.717L38.5835 45.9077H30.6907ZM32.0374 48.0897H37.2367L38.3277 50.2717H30.9464L32.0374 48.0897Z" fill="#00AFFF"/>
</svg>
