<svg width="67" height="67" viewBox="0 0 67 67" fill="none" xmlns="http://www.w3.org/2000/svg">
<g filter="url(#filter0_d_58_831)">
<path fill-rule="evenodd" clip-rule="evenodd" d="M33.9351 56.4872C47.4787 56.4872 58.458 45.5079 58.458 31.9642C58.458 18.4206 47.4787 7.44128 33.9351 7.44128C20.3914 7.44128 9.41211 18.4206 9.41211 31.9642C9.41211 45.5079 20.3914 56.4872 33.9351 56.4872Z" fill="#001119"/>
</g>
<path fill-rule="evenodd" clip-rule="evenodd" d="M37.0553 27.5639C36.6725 27.4428 36.2321 27.3621 35.8301 27.3621C35.3324 27.3621 34.2604 27.7053 34.2604 28.3714V29.9662H36.8065V32.6511H34.2604V40.0599H31.6951V32.6511H30.4316V29.9662H31.6951V28.6137C31.6951 26.5748 32.5757 24.879 34.7007 24.879C35.4281 24.879 36.7299 24.9194 37.4382 25.1818L37.0553 27.5639Z" fill="#00AFFF"/>
<defs>
<filter id="filter0_d_58_831" x="0.901958" y="0.633163" width="66.0662" height="66.0662" filterUnits="userSpaceOnUse" color-interpolation-filters="sRGB">
<feFlood flood-opacity="0" result="BackgroundImageFix"/>
<feColorMatrix in="SourceAlpha" type="matrix" values="0 0 0 0 0 0 0 0 0 0 0 0 0 0 0 0 0 0 127 0" result="hardAlpha"/>
<feOffset dy="1.70203"/>
<feGaussianBlur stdDeviation="4.25508"/>
<feColorMatrix type="matrix" values="0 0 0 0 0 0 0 0 0 0 0 0 0 0 0 0 0 0 0.1 0"/>
<feBlend mode="normal" in2="BackgroundImageFix" result="effect1_dropShadow_58_831"/>
<feBlend mode="normal" in="SourceGraphic" in2="effect1_dropShadow_58_831" result="shape"/>
</filter>
</defs>
</svg>
