<?xml version="1.0" encoding="utf-8"?>
<!-- Generator: Adobe Illustrator 27.5.0, SVG Export Plug-In . SVG Version: 6.00 Build 0)  -->
<svg version="1.1" id="Layer_1" xmlns="http://www.w3.org/2000/svg" xmlns:xlink="http://www.w3.org/1999/xlink" x="0px" y="0px"
	 viewBox="0 0 49.2 49" style="enable-background:new 0 0 49.2 49;" xml:space="preserve">
<style type="text/css">
	.st0{fill-rule:evenodd;clip-rule:evenodd;fill:#001119;}
	.st1{fill-rule:evenodd;clip-rule:evenodd;fill:#00AFFF;}
</style>
<g>
	<path class="st0" d="M24.5,49C38.1,49,49,38.1,49,24.5C49,11,38.1,0,24.5,0C11,0,0,11,0,24.5C0,38.1,11,49,24.5,49z"/>
</g>
<path class="st1" d="M27.6,20.1c-0.4-0.1-0.8-0.2-1.2-0.2c-0.5,0-1.6,0.3-1.6,1v1.6h2.5v2.7h-2.5v7.4h-2.6v-7.4H21v-2.7h1.3v-1.4
	c0-2,0.9-3.7,3-3.7c0.7,0,2,0,2.7,0.3L27.6,20.1z"/>
</svg>
