<svg width="300" height="300" xmlns="http://www.w3.org/2000/svg" viewBox="0 0 120 120">
    <path  d="M54.676 11.779c-20.053 0-36.71 14.528-40.026 33.633 3.167.493 7.132 1.184 11.128 2.067 2.087.461 4.77 1.104 7.875 1.848 9.735 2.331 24.439 5.853 37.285 7.648 2.804.209 5.507.315 8.034.315 7.363 0 12.579-.879 16.229-1.984a41.47 41.47 0 0 0 .104-2.897c0-22.439-18.19-40.63-40.629-40.63z"
           fill="#ffffff"></path>

    <path d="M49.382 23.774c.271-.006.438.141.598.317.037.037.069.072.099.111.102.111.301.139.421.048.105-.173.221-.341.352-.49a.887.887 0 0 1 .21-.231c.071-.052.146-.095.224-.131.073-.045.149-.087.229-.12.502-.216 1.261-.188 1.49-.763-.012.003-.019.01-.028.017-.417.378-1.188.156-1.694.304-.287.086-.587.199-.801.422-.108.108-.174.233-.253.367a.105.105 0 0 0-.022.038c-.345-.267-.734-.395-1.219-.263-.322.091-.636.17-.973.168-.24-.002-.501-.052-.728.043-.007.004-.01.004-.017.009.466.317 1.071.214 1.627.182.1-.005.201-.005.304 0 .058-.014.119-.023.181-.028zm4.73 4.949c-.37-.057-.767-.082-1.123.055-.182.07-.319.172-.479.276-.018.014-.032.022-.046.036-.244-.485-.619-.829-1.232-.935-.408-.07-.804-.145-1.183-.326-.269-.129-.534-.317-.843-.331-.007 0-.019.003-.019.003.354.601 1.091.8 1.731 1.063.115.046.23.096.342.152.074.021.146.041.215.07.313.129.42.386.511.669.022.057.038.115.053.175.056.177.265.313.45.276.207-.146.422-.268.648-.367.114-.067.229-.125.356-.15.113-.022.22-.031.323-.031.107-.014.214-.019.322-.014.681.022 1.516.449 2.078-.075-.014 0-.027 0-.039.003-.666.21-1.419-.45-2.065-.549zm15.179-3.656c-1.283.476-2.816-.739-4.091-.871-.726-.072-1.505-.082-2.187.218-.348.149-.611.363-.91.593a.77.77 0 0 0-.084.067c-.529-.918-1.285-1.563-2.502-1.708-.805-.096-1.58-.199-2.34-.517-.542-.229-1.077-.573-1.678-.567-.014 0-.025.005-.039.005.751 1.139 2.204 1.46 3.488 1.904.23.08.457.171.68.272.152.027.298.063.433.111.62.225.858.709 1.057 1.259.048.111.092.222.123.338.132.338.55.589.907.499a7.154 7.154 0 0 1 1.231-.78 2.01 2.01 0 0 1 .685-.333c.216-.055.423-.082.628-.092.204-.033.413-.054.631-.059 1.326-.022 3.002.73 4.045-.35a.42.42 0 0 0-.077.011z"
          fill="#00Afff"></path>

    <path d="M100.68 58.248a49.896 49.896 0 0 1-2.062 8.527c-4.587 2.445-13.759 5.928-29.85 6.936-10.607.455-47.984-8.99-66.008-6.556a49.718 49.718 0 0 1-1.894-7.161c5.125-.599 21.785-1.904 41.572 3.339 22.429 5.945 43.962 4.296 58.242-5.085z"
          fill="#B3DFFC"></path>

    <path d="M97.102 70.734a50.584 50.584 0 0 1-7.667 12.4s-.004 0-.004.004c-5.831 2.141-17.528 5.336-31.675 3.313-17.069-2.436-35.469-5.942-47.69-5.526a50.857 50.857 0 0 1-4.637-7.463c5.892-.301 19.645-.362 42.075 3.116 23.437 3.638 40.009-.971 49.598-5.844z"
          fill="#4DA8DA"></path>

    <path d="M85.992 86.85c-9.123 8.911-21.605 14.401-35.365 14.401-13.168 0-25.167-5.027-34.171-13.271 5.601-.395 16.843-.714 30.922 1.384 17.468 2.603 26.565.835 38.614-2.514z"
          fill="#00Afff"></path>

    <path fill-rule="evenodd" clip-rule="evenodd" d="M38.518 8.126c35.057-11.248 54.93 17.213 60.119 32.511l2.604 10.959c.007-.322.01-.646.01-.968C101.25 22.668 78.587 0 50.627 0S0 22.668 0 50.628c0 .989.028 1.976.09 2.951 3.664-.563 12.672-.821 32.396 3.511 26.261 5.766 53.17 10.955 68.496-1.245.025-.211.047-.419.062-.631-3.147 1.757-8.837 3.769-18.617 4.157v-6.063c3.624-.8 5.25-3.731 4.85-8.874-.479-6.743-3.464-15.431-5.622-21.88-2.159 6.449-5.144 15.137-5.65 21.88-.373 5.143 1.253 8.074 4.877 8.874v6.104c-3.019.065-6.381-.012-10.171-.297a202.69 202.69 0 0 1-4.609-.699v-3.405c2.414-.532 3.496-2.483 3.229-5.908-.318-4.489-2.306-10.273-3.742-14.567-1.438 4.294-3.425 10.078-3.763 14.567-.248 3.425.834 5.376 3.247 5.908v3.233c-8.266-1.385-16.802-3.266-24.156-4.982v-4.46c3.018-.666 4.372-3.107 4.039-7.391-.399-5.616-2.886-12.852-4.684-18.224-1.799 5.372-4.283 12.607-4.703 18.224-.318 4.284 1.021 6.725 4.04 7.391v4.164a121.676 121.676 0 0 1-5.126-1.215c-2.76-.684-5.402-1.349-7.71-1.92-4.602-1.137-8.517-2.103-11.477-2.678C21.547 33.568 40.793 18.23 38.518 8.126z"
          fill="#00Afff"></path>
</svg>
