<?xml version="1.0" encoding="utf-8"?>
<!-- Generator: Adobe Illustrator 27.5.0, SVG Export Plug-In . SVG Version: 6.00 Build 0)  -->
<svg version="1.1" id="Layer_1" xmlns="http://www.w3.org/2000/svg" xmlns:xlink="http://www.w3.org/1999/xlink" x="0px" y="0px"
	 viewBox="0 0 49 49" style="enable-background:new 0 0 49 49;" xml:space="preserve">
<style type="text/css">
	.st0{fill-rule:evenodd;clip-rule:evenodd;fill:#001119;}
	.st1{fill:#00AFFF;}
</style>
<g>
	<path class="st0" d="M24.5,49C38.1,49,49,38.1,49,24.5C49,11,38.1,0,24.5,0C11,0,0,11,0,24.5C0,38.1,11,49,24.5,49z"/>
</g>
<path class="st1" d="M27.9,17h-7.3c-0.9,0-1.9,0.4-2.5,1c-0.7,0.7-1,1.6-1,2.5v7.3c0,0.9,0.4,1.9,1,2.5c0.7,0.7,1.6,1,2.5,1h7.3
	c0.9,0,1.9-0.4,2.5-1c0.7-0.7,1-1.6,1-2.5v-7.3c0-0.9-0.4-1.9-1-2.5C29.8,17.4,28.9,17,27.9,17z M27.8,21.6c-0.2,0-0.4-0.1-0.5-0.2
	c-0.2-0.1-0.3-0.2-0.3-0.4c-0.1-0.2-0.1-0.4-0.1-0.5c0-0.2,0.1-0.3,0.3-0.5c0.1-0.1,0.3-0.2,0.5-0.3c0.2,0,0.4,0,0.5,0.1
	c0.2,0.1,0.3,0.2,0.4,0.3c0.1,0.2,0.2,0.3,0.2,0.5c0,0.1,0,0.2-0.1,0.4c0,0.1-0.1,0.2-0.2,0.3c-0.1,0.1-0.2,0.2-0.3,0.2
	C28.1,21.6,28,21.6,27.8,21.6z M24.3,20.8c0.7,0,1.3,0.2,1.9,0.6c0.6,0.4,1,0.9,1.3,1.5c0.3,0.6,0.3,1.3,0.2,2
	c-0.1,0.7-0.5,1.3-0.9,1.8s-1.1,0.8-1.8,0.9c-0.7,0.1-1.4,0.1-2-0.2c-0.6-0.3-1.2-0.7-1.5-1.3c-0.4-0.6-0.6-1.2-0.6-1.9
	c0-0.9,0.4-1.8,1-2.4C22.5,21.2,23.3,20.8,24.3,20.8z"/>
<path class="st1" d="M24.3,26.3c0.4,0,0.8-0.1,1.2-0.3c0.3-0.2,0.6-0.6,0.8-0.9c0.2-0.4,0.2-0.8,0.1-1.2c-0.1-0.4-0.3-0.8-0.6-1.1
	c-0.3-0.3-0.7-0.5-1.1-0.6c-0.4-0.1-0.8,0-1.2,0.1c-0.4,0.2-0.7,0.4-0.9,0.8c-0.2,0.3-0.3,0.7-0.3,1.2c0,0.5,0.2,1.1,0.6,1.5
	S23.7,26.3,24.3,26.3z"/>
</svg>
