<svg width="67" height="67" viewBox="0 0 67 67" fill="none" xmlns="http://www.w3.org/2000/svg">
<g filter="url(#filter0_d_262_4746)">
<path fill-rule="evenodd" clip-rule="evenodd" d="M33.0776 56.0459C46.6213 56.0459 57.6006 45.0666 57.6006 31.5229C57.6006 17.9793 46.6213 7 33.0776 7C19.534 7 8.55469 17.9793 8.55469 31.5229C8.55469 45.0666 19.534 56.0459 33.0776 56.0459Z" fill="#001119"/>
</g>
<path d="M36.4686 24.0203H29.1491C28.2015 24.0212 27.293 24.398 26.6229 25.068C25.9529 25.7381 25.5761 26.6466 25.5752 27.5941V34.9137C25.5761 35.8612 25.9529 36.7697 26.6229 37.4398C27.293 38.1098 28.2015 38.4866 29.1491 38.4875H36.4686C37.4161 38.4863 38.3243 38.1093 38.9943 37.4394C39.6643 36.7694 40.0412 35.8611 40.0425 34.9137V27.5941C40.0412 26.6467 39.6643 25.7384 38.9943 25.0684C38.3243 24.3985 37.4161 24.0215 36.4686 24.0203ZM36.394 28.5865C36.2123 28.5863 36.0347 28.5322 35.8837 28.431C35.7327 28.3298 35.6151 28.1862 35.5457 28.0182C35.4764 27.8502 35.4584 27.6654 35.4941 27.4872C35.5298 27.309 35.6175 27.1454 35.7462 27.017C35.8748 26.8887 36.0387 26.8014 36.217 26.7661C36.3953 26.7309 36.58 26.7493 36.7478 26.8191C36.9156 26.8888 37.059 27.0068 37.1598 27.158C37.2606 27.3093 37.3142 27.487 37.314 27.6687C37.3139 27.7894 37.29 27.9089 37.2436 28.0203C37.1973 28.1317 37.1295 28.2329 37.0441 28.3182C36.9586 28.4034 36.8573 28.4709 36.7457 28.517C36.6342 28.563 36.5147 28.5866 36.394 28.5865ZM32.8088 27.8089C33.4902 27.8089 34.1562 28.0109 34.7228 28.3895C35.2893 28.768 35.7309 29.306 35.9916 29.9355C36.2523 30.565 36.3206 31.2577 36.1876 31.926C36.0547 32.5942 35.7266 33.2081 35.2448 33.6899C34.763 34.1717 34.1492 34.4998 33.4809 34.6327C32.8126 34.7656 32.12 34.6974 31.4905 34.4367C30.861 34.1759 30.3229 33.7344 29.9444 33.1678C29.5659 32.6013 29.3638 31.9353 29.3638 31.2539C29.3651 30.3406 29.7285 29.4651 30.3743 28.8194C31.0201 28.1736 31.8956 27.8102 32.8088 27.8089Z" fill="#00AFFF"/>
<path d="M32.8092 33.3267C33.2192 33.3267 33.62 33.2051 33.9608 32.9773C34.3017 32.7496 34.5674 32.4258 34.7243 32.0471C34.8812 31.6683 34.9223 31.2515 34.8423 30.8494C34.7623 30.4473 34.5649 30.0779 34.275 29.788C33.9851 29.4981 33.6157 29.3007 33.2136 29.2207C32.8115 29.1408 32.3947 29.1818 32.016 29.3387C31.6372 29.4956 31.3134 29.7613 31.0857 30.1022C30.8579 30.443 30.7363 30.8438 30.7363 31.2538C30.7369 31.8034 30.9555 32.3303 31.3441 32.7189C31.7327 33.1075 32.2596 33.3261 32.8092 33.3267Z" fill="#00AFFF"/>
<defs>
<filter id="filter0_d_262_4746" x="0.0445356" y="0.191879" width="66.0662" height="66.0662" filterUnits="userSpaceOnUse" color-interpolation-filters="sRGB">
<feFlood flood-opacity="0" result="BackgroundImageFix"/>
<feColorMatrix in="SourceAlpha" type="matrix" values="0 0 0 0 0 0 0 0 0 0 0 0 0 0 0 0 0 0 127 0" result="hardAlpha"/>
<feOffset dy="1.70203"/>
<feGaussianBlur stdDeviation="4.25508"/>
<feColorMatrix type="matrix" values="0 0 0 0 0 0 0 0 0 0 0 0 0 0 0 0 0 0 0.1 0"/>
<feBlend mode="normal" in2="BackgroundImageFix" result="effect1_dropShadow_262_4746"/>
<feBlend mode="normal" in="SourceGraphic" in2="effect1_dropShadow_262_4746" result="shape"/>
</filter>
</defs>
</svg>
