<svg width="84" height="85" viewBox="0 0 84 85" fill="none" xmlns="http://www.w3.org/2000/svg">
<circle cx="42" cy="42.9246" r="42" fill="#00AFFF" fill-opacity="0.1"/>
<g clip-path="url(#clip0_11_255)">
<path d="M56.3326 48.7769C55.2592 51.8091 53.2725 54.434 50.6458 56.2906C48.0191 58.1471 44.8816 59.1439 41.665 59.1437C34.8943 59.1437 29.133 54.8166 26.9974 48.7769C31.4064 51.4948 36.4856 52.9303 41.665 52.9221C47.0436 52.9221 52.0676 51.4055 56.3326 48.7769ZM55.8597 37.2201C56.8674 39.4629 57.327 41.9133 57.2005 44.3688C52.7934 47.9001 47.3123 49.8202 41.665 49.8112C35.7886 49.8112 30.3882 47.7736 26.1295 44.3673C26.0033 41.9123 26.4628 39.4625 27.4703 37.2201C31.54 40.3491 36.5315 42.042 41.665 42.0342C47.0063 42.0342 51.9276 40.2392 55.8597 37.2201ZM41.665 28.0354C44.1312 28.0338 46.5623 28.6192 48.7574 29.7433C50.9525 30.8674 52.8486 32.4978 54.2888 34.4997C50.7079 37.3698 46.2541 38.9305 41.665 38.9233C36.8899 38.9233 32.5005 37.2684 29.0412 34.4997C30.4812 32.4975 32.3772 30.8669 34.5723 29.7428C36.7675 28.6187 39.1988 28.0334 41.665 28.0354Z" fill="#00AFFF"/>
</g>
<defs>
<clipPath id="clip0_11_255">
<rect width="37.33" height="37.33" fill="white" transform="translate(23 24.9246)"/>
</clipPath>
</defs>
</svg>
