<svg width="67" height="67" viewBox="0 0 67 67" fill="none" xmlns="http://www.w3.org/2000/svg">
<g filter="url(#filter0_d_262_4741)">
<path fill-rule="evenodd" clip-rule="evenodd" d="M33.477 56.0459C47.0207 56.0459 58 45.0666 58 31.5229C58 17.9793 47.0207 7 33.477 7C19.9334 7 8.9541 17.9793 8.9541 31.5229C8.9541 45.0666 19.9334 56.0459 33.477 56.0459Z" fill="#001119"/>
</g>
<path fill-rule="evenodd" clip-rule="evenodd" d="M26.4327 24.2883C24.8326 24.414 23.6232 25.7151 23.5454 27.3182C23.4812 28.639 23.4209 30.1589 23.4209 31.2081C23.4209 32.2693 23.4826 33.8121 23.5476 35.1433C23.6248 36.7259 24.8065 38.0183 26.3843 38.164C28.1308 38.3252 30.6578 38.4875 33.7547 38.4875C36.8435 38.4875 39.3654 38.3261 41.1114 38.1652C42.6953 38.0193 43.8793 36.7185 43.9555 35.1298C44.0227 33.7282 44.0884 32.1245 44.0884 31.2081C44.0884 30.3016 44.0241 28.7223 43.9577 27.3316C43.8808 25.7223 42.6695 24.4132 41.0633 24.2873C39.3442 24.1525 36.8646 24.0203 33.7547 24.0203C30.6367 24.0203 28.1523 24.1532 26.4327 24.2883ZM31.6879 28.1407L37.0155 31.2081L31.6879 34.2755V28.1407Z" fill="#00AFFF"/>
<defs>
<filter id="filter0_d_262_4741" x="0.44395" y="0.191879" width="66.0662" height="66.0662" filterUnits="userSpaceOnUse" color-interpolation-filters="sRGB">
<feFlood flood-opacity="0" result="BackgroundImageFix"/>
<feColorMatrix in="SourceAlpha" type="matrix" values="0 0 0 0 0 0 0 0 0 0 0 0 0 0 0 0 0 0 127 0" result="hardAlpha"/>
<feOffset dy="1.70203"/>
<feGaussianBlur stdDeviation="4.25508"/>
<feColorMatrix type="matrix" values="0 0 0 0 0 0 0 0 0 0 0 0 0 0 0 0 0 0 0.1 0"/>
<feBlend mode="normal" in2="BackgroundImageFix" result="effect1_dropShadow_262_4741"/>
<feBlend mode="normal" in="SourceGraphic" in2="effect1_dropShadow_262_4741" result="shape"/>
</filter>
</defs>
</svg>
