<?xml version="1.0" encoding="utf-8"?>
<!-- Generator: Adobe Illustrator 27.5.0, SVG Export Plug-In . SVG Version: 6.00 Build 0)  -->
<svg version="1.1" id="Layer_1" xmlns="http://www.w3.org/2000/svg" xmlns:xlink="http://www.w3.org/1999/xlink" x="0px" y="0px"
	 viewBox="0 0 49 49" style="enable-background:new 0 0 49 49;" xml:space="preserve">
<style type="text/css">
	.st0{fill-rule:evenodd;clip-rule:evenodd;fill:#001119;}
	.st1{fill-rule:evenodd;clip-rule:evenodd;fill:#00AFFF;}
</style>
<g>
	<path class="st0" d="M24.5,49C38.1,49,49,38.1,49,24.5C49,11,38.1,0,24.5,0C11,0,0,11,0,24.5C0,38.1,11,49,24.5,49z"/>
</g>
<path class="st1" d="M17.5,17.3c-1.6,0.1-2.8,1.4-2.9,3c-0.1,1.3-0.1,2.8-0.1,3.9c0,1.1,0.1,2.6,0.1,3.9c0.1,1.6,1.3,2.9,2.8,3
	c1.7,0.2,4.3,0.3,7.4,0.3c3.1,0,5.6-0.2,7.4-0.3c1.6-0.1,2.8-1.4,2.8-3c0.1-1.4,0.1-3,0.1-3.9c0-0.9-0.1-2.5-0.1-3.9
	c-0.1-1.6-1.3-2.9-2.9-3c-1.7-0.1-4.2-0.3-7.3-0.3C21.7,17,19.2,17.2,17.5,17.3z M22.7,21.1l5.3,3.1l-5.3,3.1V21.1z"/>
</svg>
